<svg width="54" height="18" viewBox="0 0 54 18" fill="none" xmlns="http://www.w3.org/2000/svg">
<path fill-rule="evenodd" clip-rule="evenodd" d="M31.8953 12.1352H31.528H31.1972C30.9871 12.1352 30.7292 11.9923 30.6193 11.8171L25.3091 3.28028C25.17 3.12526 24.8869 3 24.6764 3H23.1254C22.9146 3 22.7443 3.16802 22.7443 3.37437V4.46885V4.56318C22.7443 4.7699 22.9154 4.93764 23.1254 4.93764H23.2012H23.8221C24.0321 4.93764 24.2902 5.07962 24.4006 5.25503L29.7109 13.7921C29.8497 13.9472 30.133 14.0725 30.3433 14.0725H31.8953C32.1053 14.0725 32.2757 13.9044 32.2757 13.6982V12.6454V12.51C32.2757 12.3024 32.1053 12.1352 31.8953 12.1352ZM18.2631 3.37435C18.2631 3.16799 18.093 3.00002 17.8827 3.00002H16.4052C16.1954 3.00002 16.0248 3.16799 16.0248 3.37435V4.5632C16.0248 4.76993 16.1954 4.93766 16.4052 4.93766H18.2631V3.37435ZM16.0241 12.1352V7.07296C16.0241 6.86638 16.1949 6.69864 16.4047 6.69864H18.2621V12.1352H20.6995C20.9101 12.1352 21.0807 12.3024 21.0807 12.51V13.6978C21.0807 13.9044 20.9101 14.0725 20.6995 14.0725H13.5866C13.376 14.0725 13.2062 13.9044 13.2062 13.6982V12.51C13.2062 12.3024 13.376 12.1352 13.5866 12.1352H16.0241ZM6.63641 6.70233L8.60847 11.7263L10.4668 7.05354C10.5398 6.85981 10.7703 6.70233 10.9798 6.70233H12.852L10.0681 13.7225C9.99215 13.9154 9.76016 14.0721 9.55014 14.0725H7.69929C7.48898 14.0721 7.257 13.9154 7.1813 13.7225L4.51563 7.05104C4.43864 6.85853 4.5463 6.70233 4.75714 6.70233H6.63641ZM4.76994 3.00414H3.25218C3.04216 3.00414 2.94402 3.15625 3.03259 3.34348L3.51709 4.59181C3.59183 4.78521 3.82353 4.94178 4.03384 4.94178H5.93345L5.30453 3.34678C5.2195 3.15752 4.98048 3.00414 4.76994 3.00414ZM13.9764 3.00359H12.4589C12.2484 3.00359 12.0091 3.15697 11.9233 3.34623L11.2949 4.94124H13.1947C13.4049 4.94124 13.6365 4.78466 13.7112 4.59126L14.1956 3.34293C14.2848 3.1557 14.1867 3.00359 13.9764 3.00359ZM24.8162 8.94477L24.811 13.6981C24.811 13.9044 24.6406 14.0725 24.4301 14.0725H23.1252C22.9151 14.0725 22.7443 13.9044 22.7443 13.6981V7.24997C22.7443 7.04287 22.8758 6.87527 23.0379 6.87527H23.3931C23.4982 6.87527 23.5667 6.94647 23.6223 7.03434L24.8162 8.94477ZM38.9841 4.93765V9.9999C38.9841 10.2065 38.8133 10.3742 38.6038 10.3742H36.7459V4.93765H34.3081C34.0981 4.93765 33.9278 4.76992 33.9278 4.56319V3.37471C33.9278 3.16799 34.0981 3.00039 34.3081 3.00039L41.4216 3.00001C41.6317 3.00001 41.802 3.16799 41.802 3.37434V4.56319C41.802 4.76992 41.6317 4.93765 41.4216 4.93765H38.9841ZM37.1272 14.0725C36.9167 14.0725 36.7464 13.9044 36.7464 13.6982V12.1352H38.6038C38.8141 12.1352 38.9844 12.3024 38.9844 12.5101V13.6982C38.9844 13.9044 38.8141 14.0725 38.6038 14.0725H37.1272ZM30.2094 3.37435L30.2036 8.1281L31.3981 10.038C31.4532 10.1264 31.5219 10.1976 31.6273 10.1976H31.982C32.1445 10.1976 32.2756 10.0295 32.2756 9.8229V3.37435C32.2756 3.16799 32.1053 3.00002 31.8952 3.00002H30.5898C30.3792 3.00002 30.2094 3.16799 30.2094 3.37435ZM48.3649 10.3742L46.3928 5.34972L44.5344 10.023C44.4613 10.2168 44.2313 10.3742 44.0212 10.3742H42.149L44.9335 3.35392C45.0086 3.16071 45.2414 3.00399 45.4509 3.00362H47.3017C47.5123 3.00399 47.7443 3.16071 47.8197 3.35392L50.4859 10.0254C50.5629 10.2175 50.455 10.3742 50.2444 10.3742H48.3649ZM50.2313 14.0725H51.7488C51.9589 14.0725 52.0567 13.9207 51.9682 13.7332L51.4836 12.4848C51.4089 12.2914 51.1772 12.1348 50.9672 12.1348H49.0673L49.6962 13.7303C49.7815 13.9194 50.0205 14.0725 50.2313 14.0725ZM41.0226 14.0725H42.5401C42.7504 14.0725 42.9899 13.9194 43.0749 13.7303L43.7039 12.1348H41.804C41.5939 12.1348 41.3624 12.2914 41.2875 12.4848L40.8034 13.7332C40.7144 13.9207 40.812 14.0725 41.0226 14.0725Z" fill="#0052FF"/>
</svg>
